<mxfile host="app.diagrams.net" modified="2024-07-23T14:28:23.542Z" agent="Mozilla/5.0 (Windows NT 10.0; Win64; x64) AppleWebKit/537.36 (KHTML, like Gecko) Chrome/126.0.0.0 Safari/537.36" version="24.7.1" etag="tr4UXY0B05vKD_Vfe5IY" type="github">
  <diagram name="Page-1" id="l8QtzHQMPg3SMjg6vi2z">
    <mxGraphModel>
      <root>
        <mxCell id="0" />
        <mxCell id="1" parent="0" />
      </root>
    </mxGraphModel>
  </diagram>
</mxfile>
